<svg xmlns="http://www.w3.org/2000/svg" viewBox="0 0 800 480">
  <defs>
    <linearGradient id="headerGrad" x1="0%" y1="0%" x2="100%" y2="0%">
      <stop offset="0%" style="stop-color:#00ADD8;stop-opacity:1" />
      <stop offset="100%" style="stop-color:#007d9c;stop-opacity:1" />
    </linearGradient>
    <linearGradient id="barGrad" x1="0%" y1="0%" x2="100%" y2="0%">
      <stop offset="0%" style="stop-color:#4ecdc4;stop-opacity:1" />
      <stop offset="100%" style="stop-color:#2ab7aa;stop-opacity:1" />
    </linearGradient>
  </defs>

  <!-- Background -->
  <rect width="800" height="480" fill="#1a1a2e" rx="10"/>

  <!-- Header -->
  <rect x="20" y="15" width="760" height="40" fill="url(#headerGrad)" rx="8"/>
  <text x="400" y="42" text-anchor="middle" fill="#fff" font-family="Arial, sans-serif" font-size="14" font-weight="bold">
    CLUSTER: 3 PLCs | 9 Tasks | 27 Programs | 13,400+ Lines ST Code
  </text>

  <!-- PLC 1 -->
  <rect x="30" y="70" width="740" height="120" fill="#222" rx="8" stroke="#00ADD8" stroke-width="2"/>
  <text x="50" y="95" fill="#00ADD8" font-family="Arial, sans-serif" font-size="14" font-weight="bold">PLC1 (DataLayer Server)</text>
  <text x="650" y="95" fill="#888" font-family="monospace" font-size="12">Memory: ~100 MB</text>

  <!-- PLC1 Tasks -->
  <text x="60" y="120" fill="#4ecdc4" font-family="monospace" font-size="12">FastTask   (10ms)</text>
  <text x="220" y="120" fill="#888" font-family="monospace" font-size="11">avg: 0.77ms</text>
  <rect x="330" y="108" width="300" height="16" fill="#333" rx="3"/>
  <rect x="330" y="108" width="231" height="16" fill="url(#barGrad)" rx="3"/>
  <text x="640" y="120" fill="#4ecdc4" font-family="monospace" font-size="11">77% margin</text>

  <text x="60" y="145" fill="#4ecdc4" font-family="monospace" font-size="12">MediumTask (50ms)</text>
  <text x="220" y="145" fill="#888" font-family="monospace" font-size="11">avg: 0.16ms</text>
  <rect x="330" y="133" width="300" height="16" fill="#333" rx="3"/>
  <rect x="330" y="133" width="297" height="16" fill="url(#barGrad)" rx="3"/>
  <text x="640" y="145" fill="#4ecdc4" font-family="monospace" font-size="11">99% margin</text>

  <text x="60" y="170" fill="#4ecdc4" font-family="monospace" font-size="12">SlowTask  (100ms)</text>
  <text x="220" y="170" fill="#888" font-family="monospace" font-size="11">avg: 0.12ms</text>
  <rect x="330" y="158" width="300" height="16" fill="#333" rx="3"/>
  <rect x="330" y="158" width="297" height="16" fill="url(#barGrad)" rx="3"/>
  <text x="640" y="170" fill="#4ecdc4" font-family="monospace" font-size="11">99% margin</text>

  <!-- PLC 2 -->
  <rect x="30" y="200" width="740" height="120" fill="#222" rx="8" stroke="#ff6b6b" stroke-width="2"/>
  <text x="50" y="225" fill="#ff6b6b" font-family="Arial, sans-serif" font-size="14" font-weight="bold">PLC2 (DataLayer Client)</text>
  <text x="650" y="225" fill="#888" font-family="monospace" font-size="12">Memory: ~143 MB</text>

  <text x="60" y="250" fill="#4ecdc4" font-family="monospace" font-size="12">FastTask   (10ms)</text>
  <text x="220" y="250" fill="#888" font-family="monospace" font-size="11">avg: 0.58ms</text>
  <rect x="330" y="238" width="300" height="16" fill="#333" rx="3"/>
  <rect x="330" y="238" width="282" height="16" fill="url(#barGrad)" rx="3"/>
  <text x="640" y="250" fill="#4ecdc4" font-family="monospace" font-size="11">94% margin</text>

  <text x="60" y="275" fill="#4ecdc4" font-family="monospace" font-size="12">MediumTask (50ms)</text>
  <text x="220" y="275" fill="#888" font-family="monospace" font-size="11">avg: 0.17ms</text>
  <rect x="330" y="263" width="300" height="16" fill="#333" rx="3"/>
  <rect x="330" y="263" width="297" height="16" fill="url(#barGrad)" rx="3"/>
  <text x="640" y="275" fill="#4ecdc4" font-family="monospace" font-size="11">99% margin</text>

  <text x="60" y="300" fill="#4ecdc4" font-family="monospace" font-size="12">SlowTask  (100ms)</text>
  <text x="220" y="300" fill="#888" font-family="monospace" font-size="11">avg: 0.12ms</text>
  <rect x="330" y="288" width="300" height="16" fill="#333" rx="3"/>
  <rect x="330" y="288" width="297" height="16" fill="url(#barGrad)" rx="3"/>
  <text x="640" y="300" fill="#4ecdc4" font-family="monospace" font-size="11">99% margin</text>

  <!-- PLC 3 -->
  <rect x="30" y="330" width="740" height="120" fill="#222" rx="8" stroke="#ffe66d" stroke-width="2"/>
  <text x="50" y="355" fill="#ffe66d" font-family="Arial, sans-serif" font-size="14" font-weight="bold">PLC3 (DataLayer Client)</text>
  <text x="650" y="355" fill="#888" font-family="monospace" font-size="12">Memory: ~147 MB</text>

  <text x="60" y="380" fill="#4ecdc4" font-family="monospace" font-size="12">FastTask   (10ms)</text>
  <text x="220" y="380" fill="#888" font-family="monospace" font-size="11">avg: 0.48ms</text>
  <rect x="330" y="368" width="300" height="16" fill="#333" rx="3"/>
  <rect x="330" y="368" width="285" height="16" fill="url(#barGrad)" rx="3"/>
  <text x="640" y="380" fill="#4ecdc4" font-family="monospace" font-size="11">95% margin</text>

  <text x="60" y="405" fill="#4ecdc4" font-family="monospace" font-size="12">MediumTask (50ms)</text>
  <text x="220" y="405" fill="#888" font-family="monospace" font-size="11">avg: 0.16ms</text>
  <rect x="330" y="393" width="300" height="16" fill="#333" rx="3"/>
  <rect x="330" y="393" width="297" height="16" fill="url(#barGrad)" rx="3"/>
  <text x="640" y="405" fill="#4ecdc4" font-family="monospace" font-size="11">99% margin</text>

  <text x="60" y="430" fill="#4ecdc4" font-family="monospace" font-size="12">SlowTask  (100ms)</text>
  <text x="220" y="430" fill="#888" font-family="monospace" font-size="11">avg: 0.12ms</text>
  <rect x="330" y="418" width="300" height="16" fill="#333" rx="3"/>
  <rect x="330" y="418" width="297" height="16" fill="url(#barGrad)" rx="3"/>
  <text x="640" y="430" fill="#4ecdc4" font-family="monospace" font-size="11">99% margin</text>

  <!-- Footer -->
  <text x="400" y="465" text-anchor="middle" fill="#4ecdc4" font-family="Arial, sans-serif" font-size="13" font-weight="bold">
    All tasks: 0 faults | Sub-millisecond avg scan times
  </text>
</svg>
