<svg xmlns="http://www.w3.org/2000/svg" viewBox="0 0 700 420" font-family="Arial, sans-serif">
  <rect width="700" height="420" fill="#fafafa" rx="8"/>
  <text x="350" y="28" text-anchor="middle" font-size="15" font-weight="bold" fill="#1a1a2e">Cluster Scaling Efficiency (32 Threads)</text>

  <g transform="translate(80, 50)">
    <line x1="0" y1="300" x2="560" y2="300" stroke="#333" stroke-width="1.5"/>
    <line x1="0" y1="0" x2="0" y2="300" stroke="#333" stroke-width="1.5"/>

    <text x="-10" y="305" text-anchor="end" font-size="10" fill="#555">0</text>
    <text x="-10" y="245" text-anchor="end" font-size="10" fill="#555">100K</text>
    <line x1="0" y1="240" x2="560" y2="240" stroke="#eee" stroke-width="1"/>
    <text x="-10" y="185" text-anchor="end" font-size="10" fill="#555">200K</text>
    <line x1="0" y1="180" x2="560" y2="180" stroke="#eee" stroke-width="1"/>
    <text x="-10" y="125" text-anchor="end" font-size="10" fill="#555">300K</text>
    <line x1="0" y1="120" x2="560" y2="120" stroke="#eee" stroke-width="1"/>
    <text x="-10" y="65" text-anchor="end" font-size="10" fill="#555">400K</text>
    <line x1="0" y1="60" x2="560" y2="60" stroke="#eee" stroke-width="1"/>
    <text x="-10" y="5" text-anchor="end" font-size="10" fill="#555">500K</text>
    <line x1="0" y1="0" x2="560" y2="0" stroke="#eee" stroke-width="1"/>

    <text x="-55" y="150" text-anchor="middle" font-size="11" fill="#333" transform="rotate(-90, -55, 150)">Aggregate Scans/s</text>

    <text x="0" y="318" text-anchor="middle" font-size="10" fill="#555">1</text>
    <text x="62" y="318" text-anchor="middle" font-size="10" fill="#555">10</text>
    <text x="155" y="318" text-anchor="middle" font-size="10" fill="#555">50</text>
    <text x="248" y="318" text-anchor="middle" font-size="10" fill="#555">100</text>
    <text x="342" y="318" text-anchor="middle" font-size="10" fill="#555">200</text>
    <text x="404" y="318" text-anchor="middle" font-size="10" fill="#555">300</text>
    <text x="466" y="318" text-anchor="middle" font-size="10" fill="#555">400</text>
    <text x="498" y="318" text-anchor="middle" font-size="10" fill="#555">500</text>
    <text x="540" y="318" text-anchor="middle" font-size="10" fill="#555">600</text>
    <text x="280" y="340" text-anchor="middle" font-size="11" fill="#333">Number of Minions</text>

    <line x1="0" y1="299" x2="540" y2="0" stroke="#bbb" stroke-width="1.5" stroke-dasharray="6,4"/>
    <text x="545" y="10" font-size="9" fill="#999">Ideal</text>

    <polyline points="0,299 62,294 155,272 248,242 342,182 404,128 466,71 498,22 540,0"
              fill="none" stroke="#2980b9" stroke-width="2.5"/>

    <circle cx="0" cy="299" r="4" fill="#2980b9"/>
    <circle cx="62" cy="294" r="4" fill="#2980b9"/>
    <circle cx="155" cy="272" r="4" fill="#2980b9"/>
    <circle cx="248" cy="242" r="4" fill="#2980b9"/>
    <circle cx="342" cy="182" r="4" fill="#2980b9"/>
    <circle cx="404" cy="128" r="4" fill="#2980b9"/>
    <circle cx="466" cy="71" r="4" fill="#2980b9"/>
    <circle cx="498" cy="22" r="4" fill="#2980b9"/>
    <circle cx="540" cy="0" r="4" fill="#2980b9"/>

    <text x="62" y="285" text-anchor="middle" font-size="8" fill="#27ae60" font-weight="bold">98.4%</text>
    <text x="248" y="233" text-anchor="middle" font-size="8" fill="#27ae60" font-weight="bold">98.2%</text>
    <text x="404" y="119" text-anchor="middle" font-size="8" fill="#27ae60" font-weight="bold">97.8%</text>
    <text x="498" y="13" text-anchor="middle" font-size="8" fill="#f39c12" font-weight="bold">94.9%</text>
    <text x="540" y="-8" text-anchor="middle" font-size="8" fill="#e67e22" font-weight="bold">91.7%</text>
  </g>

  <g transform="translate(430, 370)">
    <line x1="0" y1="0" x2="25" y2="0" stroke="#2980b9" stroke-width="2.5"/>
    <circle cx="12" cy="0" r="3" fill="#2980b9"/>
    <text x="30" y="4" font-size="10" fill="#333">Measured throughput</text>
    <line x1="0" y1="18" x2="25" y2="18" stroke="#bbb" stroke-width="1.5" stroke-dasharray="6,4"/>
    <text x="30" y="22" font-size="10" fill="#333">Ideal linear scaling</text>
  </g>

  <text x="350" y="408" text-anchor="middle" font-size="10" fill="#777">Scaling efficiency &gt;95% to 500 minions — limited by Go scheduler at ~600+</text>
</svg>